<?xml version="1.0" encoding="utf-8"?>
<!-- Generator: Adobe Illustrator 16.0.0, SVG Export Plug-In . SVG Version: 6.00 Build 0)  -->
<!DOCTYPE svg PUBLIC "-//W3C//DTD SVG 1.1//EN" "http://www.w3.org/Graphics/SVG/1.1/DTD/svg11.dtd">
<svg version="1.1" id="Layer_1" xmlns="http://www.w3.org/2000/svg" xmlns:xlink="http://www.w3.org/1999/xlink" x="0px" y="0px"
	 width="137.5px" height="100px" viewBox="0 0 137.5 100" enable-background="new 0 0 137.5 100" xml:space="preserve">
<g>
	<g>
		<polygon fill="#F4F4F4" points="58.357,-6.766 59.05,-9.349 42.428,-13.807 16.89,11.687 21.224,27.919 7.798,41.323 
			17.106,76.187 35.427,81.112 39.196,95.229 74.047,104.6 87.319,91.328 76.469,50.69 73.881,41.222 71.912,33.627 60.544,-8.95 
			59.05,-9.349 58.357,-6.766 55.772,-6.077 66.737,34.991 66.732,34.972 68.715,42.591 71.31,52.111 81.354,89.729 72.45,98.633 
			43.567,90.866 39.797,76.749 21.478,71.822 13.762,42.927 27.188,29.524 22.853,13.292 44.023,-7.841 57.664,-4.183 
			58.357,-6.766 55.772,-6.077 		"/>
		<polyline fill="#F4F4F4" points="23.56,31.317 33.618,33.82 34.91,28.63 24.854,26.126 		"/>
		<ellipse fill="#F4F4F4" cx="34.042" cy="31.172" rx="4.022" ry="4.022"/>
		<path fill="#F4F4F4" d="M32.942,35.593c-2.438-0.607-3.927-3.085-3.32-5.522c0.606-2.438,3.084-3.928,5.522-3.321
			c2.437,0.606,3.927,3.085,3.32,5.523C37.857,34.709,35.38,36.199,32.942,35.593C30.504,34.986,35.38,36.199,32.942,35.593z
			 M34.885,27.787c-1.865-0.464-3.762,0.675-4.227,2.542c-0.464,1.867,0.675,3.761,2.543,4.226c1.867,0.466,3.76-0.675,4.226-2.542
			C37.892,30.147,36.752,28.252,34.885,27.787C33.02,27.322,36.752,28.252,34.885,27.787z"/>
		<polyline fill="#F4F4F4" points="39.351,80.963 46.896,74.507 43.421,70.444 35.874,76.898 		"/>
		<path fill="#F4F4F4" d="M42.372,69.571c1.688-1.444,4.227-1.246,5.67,0.44c1.445,1.688,1.247,4.227-0.441,5.672
			c-1.688,1.441-4.227,1.245-5.67-0.442C40.487,73.555,40.684,71.016,42.372,69.571z"/>
		<path fill="#F4F4F4" d="M47.948,76.087c-1.911,1.633-4.792,1.407-6.424-0.501c-1.632-1.91-1.41-4.792,0.5-6.425
			c1.909-1.634,4.792-1.407,6.425,0.501C50.082,71.57,49.857,74.453,47.948,76.087C46.039,77.72,49.857,74.453,47.948,76.087z
			 M42.718,69.973c-1.461,1.251-1.633,3.458-0.382,4.917c1.25,1.462,3.457,1.634,4.916,0.383c1.461-1.251,1.633-3.458,0.382-4.917
			C46.387,68.896,44.181,68.725,42.718,69.973C41.257,71.224,44.181,68.725,42.718,69.973z"/>
		<polygon fill="#F4F4F4" points="40.105,16.921 45.105,19.012 48.589,32.061 39.326,42.658 44.377,61.574 57.031,63.676 
			60.624,77.132 57.165,82.83 61.734,85.607 66.379,77.959 61.308,58.963 48.655,56.862 45.228,44.032 54.491,33.435 49.593,15.09 
			42.166,11.986 		"/>
		<ellipse fill="#F4F4F4" cx="41.346" cy="14.542" rx="4.022" ry="4.022"/>
		<path fill="#F4F4F4" d="M39.588,18.747c2.319,0.969,4.993-0.129,5.962-2.447c0.968-2.318-0.13-4.992-2.448-5.96
			c-2.317-0.968-4.992,0.129-5.961,2.447C36.173,15.104,37.27,17.778,39.588,18.747C41.906,19.715,37.27,17.778,39.588,18.747z
			 M42.69,11.325c1.775,0.742,2.615,2.788,1.875,4.562c-0.744,1.773-2.788,2.615-4.563,1.874c-1.774-0.743-2.614-2.789-1.873-4.562
			C38.869,11.423,40.916,10.583,42.69,11.325C44.465,12.065,40.916,10.583,42.69,11.325z"/>
		<ellipse fill="#F4F4F4" cx="59.567" cy="84.025" rx="4.022" ry="4.022"/>
		<path fill="#F4F4F4" d="M55.674,81.659c1.305-2.146,4.111-2.833,6.26-1.529c2.147,1.304,2.833,4.111,1.529,6.261
			c-1.306,2.146-4.113,2.832-6.261,1.529C55.055,86.615,54.37,83.808,55.674,81.659C56.977,79.513,54.37,83.808,55.674,81.659z
			 M62.549,85.833c0.998-1.644,0.472-3.793-1.17-4.791c-1.644-0.997-3.792-0.474-4.79,1.172c-0.999,1.646-0.474,3.791,1.169,4.789
			C59.402,88.003,61.551,87.477,62.549,85.833S61.551,87.477,62.549,85.833z"/>
		<polyline fill="#F4F4F4" points="15.943,61.458 25.867,58.809 24.487,53.642 14.563,56.29 		"/>
		<circle fill="#F4F4F4" cx="24.956" cy="56.284" r="4.022"/>
		<path fill="#F4F4F4" d="M26.132,60.686c-2.427,0.649-4.93-0.8-5.578-3.226c-0.648-2.427,0.8-4.93,3.227-5.577
			c2.426-0.648,4.93,0.799,5.578,3.227C30.006,57.536,28.559,60.039,26.132,60.686C23.705,61.335,28.559,60.039,26.132,60.686z
			 M24.057,52.916c-1.858,0.496-2.966,2.409-2.47,4.269c0.496,1.856,2.41,2.967,4.27,2.469c1.857-0.495,2.965-2.409,2.469-4.269
			C27.829,53.526,25.916,52.42,24.057,52.916S25.916,52.42,24.057,52.916z"/>
		<polyline fill="#F4F4F4" points="62.454,49.041 72.377,46.391 70.997,41.222 61.073,43.873 		"/>
		<circle fill="#F4F4F4" cx="61.984" cy="46.398" r="4.022"/>
		<path fill="#F4F4F4" d="M63.16,50.8c2.426-0.647,3.875-3.151,3.227-5.577c-0.648-2.428-3.151-3.875-5.578-3.227
			c-2.427,0.648-3.875,3.15-3.227,5.578C58.229,50,60.732,51.449,63.16,50.8C65.586,50.152,60.732,51.449,63.16,50.8z
			 M61.085,43.029c1.856-0.497,3.771,0.611,4.268,2.469c0.496,1.857-0.61,3.772-2.469,4.269s-3.772-0.61-4.269-2.469
			S59.226,43.525,61.085,43.029C62.941,42.532,59.226,43.525,61.085,43.029z"/>
		<polygon fill="#F4F4F4" points="58.357,-6.766 60.245,-4.872 70.247,-14.843 99.133,-7.076 103.466,9.157 121.788,14.082 
			129.504,42.978 116.077,56.382 119.845,70.498 98.68,91.63 86.522,88.347 76.476,50.718 73.982,41.181 71.903,33.591 
			71.908,33.61 60.942,-7.457 58.357,-6.766 60.245,-4.872 58.357,-6.766 55.772,-6.077 66.744,35.011 68.818,42.577 71.303,52.084 
			82.15,92.709 100.27,97.598 125.81,72.103 122.039,57.985 135.468,44.583 126.159,9.72 107.836,4.793 103.501,-11.439 
			68.656,-20.81 55.375,-7.569 55.772,-6.077 		"/>
		<polyline fill="#F4F4F4" points="103.799,5.047 96.327,12.231 100.037,16.086 107.507,8.902 		"/>
		<path fill="#F4F4F4" d="M95.556,11.105c1.602-1.539,4.148-1.489,5.688,0.11c1.536,1.603,1.488,4.148-0.112,5.688
			c-1.6,1.54-4.146,1.49-5.688-0.11C93.902,15.191,93.953,12.645,95.556,11.105z"/>
		<path fill="#F4F4F4" d="M95.188,10.717c1.81-1.741,4.7-1.685,6.44,0.126c1.743,1.81,1.686,4.701-0.124,6.442
			c-1.811,1.741-4.701,1.686-6.443-0.125C93.32,15.348,93.375,12.458,95.188,10.717C96.997,8.976,93.375,12.458,95.188,10.717z
			 M100.762,16.515c1.387-1.333,1.432-3.545,0.096-4.931c-1.332-1.388-3.544-1.431-4.929-0.097
			c-1.386,1.333-1.428,3.543-0.095,4.931C97.166,17.804,99.376,17.847,100.762,16.515C102.148,15.182,99.376,17.847,100.762,16.515z
			"/>
		<polyline fill="#F4F4F4" points="119.551,54.557 109.794,52.723 108.805,57.978 118.565,59.813 		"/>
		<path fill="#F4F4F4" d="M105.568,54.642c0.411-2.185,2.512-3.621,4.694-3.212c2.186,0.41,3.62,2.512,3.21,4.696
			c-0.41,2.184-2.511,3.621-4.693,3.212C106.596,58.926,105.159,56.823,105.568,54.642z"/>
		<path fill="#F4F4F4" d="M110.363,50.914c2.471,0.462,4.102,2.852,3.638,5.319c-0.464,2.469-2.852,4.1-5.321,3.638
			c-2.468-0.466-4.099-2.852-3.636-5.321C105.509,52.081,107.895,50.45,110.363,50.914C112.834,51.376,107.895,50.45,110.363,50.914
			z M108.878,58.818c1.89,0.355,3.715-0.894,4.069-2.783c0.358-1.888-0.894-3.714-2.778-4.068c-1.893-0.357-3.717,0.891-4.074,2.782
			C105.739,56.639,106.989,58.462,108.878,58.818C110.768,59.174,106.989,58.462,108.878,58.818z"/>
		<polygon fill="#F4F4F4" points="81.741,1.419 76.848,7.813 81.745,26.159 95.059,30.727 98.484,43.558 88.562,51.686 
			93.634,70.682 101.475,74.996 104.053,70.311 98.214,67.097 94.621,53.639 104.541,45.509 99.489,26.594 86.18,22.024 
			82.694,8.975 85.988,4.67 81.741,1.419 		"/>
		<ellipse fill="#F4F4F4" cx="83.725" cy="3.227" rx="4.022" ry="4.022"/>
		<path fill="#F4F4F4" d="M80.107,0.457c-1.527,1.995-1.145,4.861,0.85,6.388c1.995,1.527,4.862,1.145,6.388-0.85
			c1.525-1.996,1.145-4.86-0.85-6.388C84.498-1.919,81.633-1.539,80.107,0.457C78.58,2.452,81.633-1.539,80.107,0.457z
			 M86.494,5.346c-1.167,1.527-3.359,1.816-4.888,0.65c-1.527-1.169-1.818-3.361-0.652-4.889c1.171-1.528,3.364-1.818,4.894-0.65
			C87.373,1.625,87.664,3.817,86.494,5.346C85.327,6.872,87.664,3.817,86.494,5.346z"/>
		<path fill="#F4F4F4" d="M99.041,70.602c1.069-1.947,3.516-2.654,5.463-1.584c1.947,1.071,2.652,3.52,1.587,5.463
			c-1.074,1.945-3.519,2.656-5.466,1.582C98.681,74.993,97.972,72.548,99.041,70.602z"/>
		<path fill="#F4F4F4" d="M100.369,76.535c-2.206-1.211-3.009-3.987-1.797-6.189c1.213-2.199,3.988-3.003,6.189-1.793
			c2.202,1.212,3.005,3.988,1.795,6.188C105.346,76.942,102.566,77.747,100.369,76.535C98.163,75.324,102.566,77.747,100.369,76.535
			z M104.245,69.489c-1.684-0.929-3.808-0.312-4.735,1.372c-0.927,1.684-0.311,3.81,1.375,4.736
			c1.685,0.927,3.809,0.313,4.734-1.375C106.546,72.539,105.928,70.417,104.245,69.489
			C102.562,68.561,105.928,70.417,104.245,69.489z"/>
		<polyline fill="#F4F4F4" points="127.754,26.068 117.831,28.717 119.211,33.886 129.134,31.235 		"/>
		<circle fill="#F4F4F4" cx="118.743" cy="31.242" r="4.021"/>
		<path fill="#F4F4F4" d="M117.567,26.84c2.426-0.648,4.929,0.8,5.577,3.227c0.647,2.426-0.8,4.93-3.227,5.578
			c-2.427,0.647-4.931-0.8-5.578-3.227C113.69,29.99,115.141,27.489,117.567,26.84C119.993,26.192,115.141,27.489,117.567,26.84z
			 M119.643,34.611c1.857-0.496,2.965-2.411,2.47-4.269c-0.497-1.857-2.412-2.965-4.27-2.47c-1.856,0.496-2.967,2.41-2.469,4.27
			C115.87,34,117.78,35.108,119.643,34.611C121.5,34.115,117.78,35.108,119.643,34.611z"/>
		<polyline fill="#F4F4F4" points="81.243,38.487 71.32,41.137 72.7,46.304 82.623,43.655 		"/>
		<circle fill="#F4F4F4" cx="81.714" cy="41.129" r="4.022"/>
		<path fill="#F4F4F4" d="M80.539,36.728c-2.427,0.648-3.877,3.15-3.228,5.578c0.646,2.427,3.151,3.875,5.577,3.227
			c2.427-0.648,3.875-3.151,3.226-5.578C85.468,37.526,82.968,36.079,80.539,36.728C78.112,37.375,82.968,36.079,80.539,36.728z
			 M82.614,44.498c-1.857,0.495-3.772-0.612-4.27-2.47c-0.495-1.857,0.612-3.773,2.47-4.269c1.859-0.497,3.772,0.61,4.269,2.47
			C85.58,42.087,84.474,44.001,82.614,44.498C80.757,44.993,84.474,44.001,82.614,44.498z"/>
	</g>
</g>
</svg>
