<?xml version="1.0" encoding="utf-8"?>
<!-- Generator: Adobe Illustrator 16.0.0, SVG Export Plug-In . SVG Version: 6.00 Build 0)  -->
<!DOCTYPE svg PUBLIC "-//W3C//DTD SVG 1.1//EN" "http://www.w3.org/Graphics/SVG/1.1/DTD/svg11.dtd">
<svg version="1.1" id="Layer_1" xmlns="http://www.w3.org/2000/svg" xmlns:xlink="http://www.w3.org/1999/xlink" x="0px" y="0px"
	 width="100px" height="100px" viewBox="0 0 100 100" enable-background="new 0 0 100 100" xml:space="preserve">
<g transform="translate(-570 -440)">
	<g>
		<rect x="633.297" y="448.453" fill="#F4F4F4" width="6.646" height="6.648"/>
		<polygon fill="#F4F4F4" points="639.943,493.367 639.943,481.69 643.268,481.69 643.268,464.178 648.396,475.718 651.434,474.369 
			644.348,458.424 628.892,458.424 621.807,474.369 624.843,475.718 629.973,464.178 629.973,481.69 633.297,481.69 
			633.297,499.854 		"/>
		<rect x="600.059" y="448.453" fill="#F4F4F4" width="6.648" height="6.648"/>
		<polygon fill="#F4F4F4" points="606.707,499.854 606.707,485.015 613.354,485.015 610.03,471.719 610.03,464.178 615.159,475.718 
			618.196,474.369 611.11,458.424 595.655,458.424 588.568,474.369 591.606,475.718 596.735,464.178 596.735,471.719 
			593.412,485.015 600.059,485.015 600.059,493.367 		"/>
		<path fill="#F4F4F4" d="M598.596,496.448c-1.947-1.948-5.105-1.948-7.049,0c-1.948,1.943-1.948,5.102,0,7.05l6.847,6.85v6.246
			l-14.953-14.961v-24.928c0-2.752-2.233-4.985-4.986-4.985c-2.752,0-4.985,2.233-4.985,4.985v38.224l16.618,16.617v13.296h26.59
			v-30.315L598.596,496.448z"/>
		<path fill="#F4F4F4" d="M661.549,471.719c-2.753,0-4.985,2.233-4.985,4.985v24.928l-14.957,14.956v-6.244l6.846-6.851
			c1.948-1.947,1.948-5.105,0-7.049c-1.944-1.948-5.102-1.948-7.049,0l-18.082,18.076v30.32h26.591v-13.296l16.619-16.617v-38.224
			C666.534,473.953,664.3,471.719,661.549,471.719z"/>
	</g>
</g>
</svg>
