<?xml version="1.0" encoding="utf-8"?>
<!-- Generator: Adobe Illustrator 16.0.0, SVG Export Plug-In . SVG Version: 6.00 Build 0)  -->
<!DOCTYPE svg PUBLIC "-//W3C//DTD SVG 1.1//EN" "http://www.w3.org/Graphics/SVG/1.1/DTD/svg11.dtd">
<svg version="1.1" id="Layer_1" xmlns="http://www.w3.org/2000/svg" xmlns:xlink="http://www.w3.org/1999/xlink" x="0px" y="0px"
	 width="178.5px" height="100px" viewBox="0 0 178.5 100" enable-background="new 0 0 178.5 100" xml:space="preserve">
<path fill="#7E51A8" d="M167.226,46.558c-3.009,0.035-6.03-0.128-9.028,0.053c-2.246,0.134-3.45-0.554-4.207-2.784
	c-1.486-4.398-3.298-8.689-4.974-13.023c-0.649-1.681-1.423-3.326-3.593-3.131c-2.179,0.195-2.638,1.944-2.949,3.724
	c-1.37,7.809-2.753,15.617-4.11,23.429c-0.156,0.892-0.156,1.82-0.993,2.723c-0.75-2.625-1.55-5.092-2.145-7.608
	c-0.574-2.426-1.877-3.577-4.442-3.4c-1.998,0.14-4.016-0.064-6.018,0.051c-1.854,0.105-2.272-0.459-1.998-2.361
	c1.271-8.662-2.174-15.962-9.143-19.944c-0.054-0.034-0.111-0.066-0.171-0.1c-0.131-0.073-0.252-0.153-0.383-0.224
	c-0.029-0.016-0.058-0.027-0.089-0.042c-2.131-1.16-4.385-1.866-6.684-2.122c-5.425-0.667-10.889,1.134-15.491,5.32
	c-0.116,0.106-0.228,0.212-0.334,0.312c-0.522,0.475-0.921,0.659-1.266,0.657c-0.295-0.024-0.633-0.187-1.053-0.54
	c-0.146-0.132-0.299-0.279-0.467-0.43c-4.658-4.239-10.204-6.03-15.696-5.29c-0.196,0.026-0.392,0.055-0.586,0.084
	c-0.115,0.019-0.229,0.034-0.345,0.056c-1.874,0.334-3.71,0.971-5.461,1.914c-0.057,0.029-0.114,0.052-0.173,0.083
	c-7.349,3.906-11.003,11.375-9.699,20.268c0.278,1.901-0.14,2.466-1.996,2.361c-2.001-0.115-4.021,0.087-6.019-0.052
	c-2.563-0.176-3.868,0.977-4.44,3.4c-0.595,2.518-1.396,4.984-2.144,7.608c-0.839-0.902-0.84-1.83-0.997-2.722
	c-1.359-7.813-2.738-15.62-4.108-23.429c-0.314-1.781-0.771-3.531-2.95-3.724c-2.17-0.194-2.943,1.45-3.591,3.13
	c-1.676,4.337-3.484,8.626-4.974,13.024c-0.756,2.23-1.96,2.916-4.206,2.783c-3-0.178-6.02-0.016-9.029-0.051
	c-2.031-0.023-3.788,0.445-3.869,2.826c-0.087,2.558,1.737,3.125,3.877,3.124c4.381-0.004,8.761-0.068,13.14,0.028
	c2.269,0.046,3.548-0.931,4.272-3.022c0.797-2.303,1.76-4.543,2.652-6.812c0.188,0.01,0.376,0.021,0.562,0.034
	c1.709,9.78,3.423,19.558,5.125,29.335c0.319,1.842,0.972,3.441,3.148,3.487c2.053,0.045,2.747-1.519,3.204-3.171
	c1.161-4.218,2.218-8.464,3.466-12.652c0.699-2.339,0.421-5.478,2.289-6.818c1.843-1.324,4.769-0.366,7.217-0.39
	c7.538-0.075,7.835-0.432,5.698-7.565c-1.914-6.392,0.595-12.805,6.142-15.705c0.785-0.411,1.584-0.738,2.385-0.991l0.04,0.019
	c2.426-0.712,4.854-0.741,7.098-0.188c3.311,0.908,6.264,3.208,8.261,6.719c0.231,0.405,0.467,0.758,0.711,1.071
	c0.227,0.36,0.495,0.692,0.855,0.958c0.578,0.429,1.159,0.629,1.732,0.613c0.047,0,0.092-0.003,0.139-0.006
	c0.036-0.003,0.071-0.005,0.106-0.01c0.474-0.053,0.947-0.247,1.421-0.6c0.353-0.26,0.615-0.582,0.839-0.93
	c0.248-0.318,0.494-0.679,0.728-1.092c2.033-3.573,5.054-5.896,8.438-6.771l0,0c0.135-0.035,0.271-0.063,0.401-0.093
	c2.08-0.413,4.303-0.326,6.521,0.324l0.032-0.016c0.807,0.252,1.606,0.582,2.397,0.993c5.544,2.9,8.053,9.313,6.139,15.705
	c-2.135,7.136-1.842,7.49,5.7,7.565c2.446,0.025,5.373-0.935,7.217,0.389c1.864,1.342,1.59,4.48,2.287,6.819
	c1.249,4.188,2.305,8.436,3.466,12.652c0.455,1.652,1.15,3.216,3.204,3.171c2.174-0.05,2.826-1.646,3.146-3.487
	c1.702-9.777,3.415-19.558,5.126-29.335c0.187-0.01,0.375-0.023,0.563-0.036c0.891,2.269,1.854,4.511,2.652,6.811
	c0.724,2.093,2.004,3.07,4.273,3.023c4.375-0.097,8.756-0.031,13.137-0.028c2.142,0.002,3.963-0.566,3.881-3.124
	C171.016,47.003,169.258,46.534,167.226,46.558z"/>
<path fill="#7E51A8" d="M112.797,57.502c-1.811-1.81-3.474-0.756-4.955,0.736c-4.983,5.013-10.697,9.08-16.662,12.815
	c-0.159,0.099-0.313,0.201-0.467,0.299l-0.419,0.11c-0.782,0.486-1.391,0.4-1.956,0.132c-0.04-0.021-0.081-0.042-0.123-0.066
	l-0.027-0.01c-0.289-0.153-0.568-0.348-0.86-0.529c-5.966-3.734-11.68-7.802-16.662-12.814c-1.481-1.492-3.143-2.548-4.954-0.739
	c-1.789,1.789-0.83,3.429,0.701,4.944c1.694,1.678,3.463,3.256,5.282,4.767l-0.053-0.014c4.281,3.602,8.875,6.763,13.669,9.655
	c0.306,0.188,0.605,0.383,0.911,0.571c0.599,0.367,1.171,0.613,1.731,0.762c1.43,0.429,2.798,0.241,4.334-0.7
	c7.093-4.35,13.875-9.096,19.811-14.978C113.626,60.926,114.586,59.291,112.797,57.502z"/>
</svg>
