<svg xmlns="http://www.w3.org/2000/svg" xmlns:xlink="http://www.w3.org/1999/xlink" version="1.1" x="0px" y="0px" viewBox="0 0 100 125" style="enable-background:new 0 0 100 100;" xml:space="preserve"><style type="text/css">
	.st0{fill:none;stroke:#000000;stroke-width:4;stroke-miterlimit:10;}
</style><path d="M36.5,18c1,3.3,4,5.4,7.2,5.4l2.1,10.1c-3.8,1.2-6.8,3.8-8.6,7.1L25,35.4c0.2-1.2,0.2-2.4-0.1-3.6c-1.2-4-5.3-6.3-9.3-5.1  c-4,1.2-6.3,5.3-5.1,9.3s5.3,6.3,9.3,5.1c1.7-0.5,3.1-1.6,4.1-2.9l12.2,5.2c-0.9,2.7-0.9,5.7-0.1,8.7c0.8,2.6,2.2,4.8,4,6.6  L28.7,72.9c-2.3-1.3-5-1.7-7.7-0.9c-5.3,1.5-8.4,7.1-6.8,12.4s7.1,8.4,12.4,6.8c5.3-1.5,8.4-7.1,6.8-12.4c-0.5-1.6-1.3-2.9-2.3-4  l11.3-14.3c3.5,2.2,7.9,3,12.2,1.8c2.4-0.7,4.6-2,6.3-3.6l12.5,10.6c-0.4,1-0.5,2.2-0.2,3.3c0.8,2.7,3.5,4.2,6.2,3.4  c2.7-0.8,4.2-3.5,3.4-6.2c-0.8-2.7-3.5-4.2-6.2-3.4c-0.5,0.1-0.9,0.3-1.3,0.6L62.8,56.3c2.4-3.6,3.3-8.2,2-12.7  c-0.4-1.5-1.1-2.9-1.9-4.1l10.3-8.4c2.5,2.2,6,3.2,9.5,2.2c5.3-1.5,8.4-7.1,6.8-12.4c-1.5-5.3-7.1-8.4-12.4-6.8  c-5.3,1.5-8.4,7.1-6.8,12.4c0.2,0.8,0.6,1.6,1,2.3L61,37.2c-3.2-3.1-7.6-4.8-12.2-4.3l-2.1-10.1c3.4-1.5,5.3-5.3,4.3-9  c-1.2-4-5.3-6.3-9.3-5.1S35.4,14,36.5,18z"/><text x="0" y="115" fill="#000000" font-size="5px" font-weight="bold" font-family="'Helvetica Neue', Helvetica, Arial-Unicode, Arial, Sans-serif">Created by Curve</text><text x="0" y="120" fill="#000000" font-size="5px" font-weight="bold" font-family="'Helvetica Neue', Helvetica, Arial-Unicode, Arial, Sans-serif">from the Noun Project</text></svg>