<svg xmlns="http://www.w3.org/2000/svg" xmlns:xlink="http://www.w3.org/1999/xlink" version="1.1" x="0px" y="0px" viewBox="0 0 512 640" enable-background="new 0 0 512 512" xml:space="preserve"><g><g><path fill="#000000" d="M346.045,144.198c-2.814,4.484-6.947,5.012-11.343,2.198c-13.103-8.53-27.26-13.982-42.737-16.796    c-36.932-6.771-74.568,8.002-98.838,34.91h-19.609c36.757-51.354,108.335-68.062,164.613-34.295    c1.759,1.055,3.518,2.11,5.188,3.342C347.188,136.371,348.683,140.065,346.045,144.198z"/><path fill="#000000" d="M375.24,164.511h-15.741c0.352-1.319,1.231-2.638,2.902-4.133    C366.27,156.86,370.051,158.091,375.24,164.511z"/><path fill="#000000" d="M395.552,346.799c-3.254,16.532-7.562,32.536-12.927,48.364c-0.879,2.462-1.934,4.836-2.813,7.211    c-1.759,4.836-5.188,7.474-10.113,5.54c-5.1-1.935-6.156-5.979-4.133-11.431c5.892-16.356,10.552-32.888,14.07-49.683H395.552z"/><path fill="#000000" d="M419.119,164.511h-18.203c-23.127-38.34-57.158-63.489-104.994-71.579    c-5.188-0.88-9.321-3.166-8.793-8.793c0.704-6.244,5.54-7.387,10.992-6.595c25.501,3.517,48.716,12.926,69.292,28.227    C389.924,122.478,407.16,142.175,419.119,164.511z"/><path fill="#000000" d="M187.675,346.799c-9.321,28.93-25.237,57.509-50.826,62.258c-30.514,5.627-54.696-18.115-49.244-47.924    c0.88-5.188,3.781-7.738,8.178-7.211c5.1,0.528,7.211,3.693,6.683,9.409c-1.319,13.718,8.442,29.018,22.336,31.744    c20.664,4.133,36.493-23.83,45.726-48.276H187.675z"/><path fill="#000000" d="M322.303,164.511h-92.419c0.528-2.902,3.254-4.749,6.332-6.244c22.863-10.552,46.341-12.223,69.556-2.462    C311.75,158.355,317.29,161.169,322.303,164.511z"/><path fill="#000000" d="M471.176,346.799c-10.2,34.998-29.546,64.896-56.366,89.869c-1.583,1.319-2.198,1.759-2.814,2.286    c-4.221,3.694-8.793,7.563-13.806,1.759c-5.1-5.891-0.528-9.585,3.606-13.454c25.589-23.303,43.439-50.123,53.288-80.46H471.176z"/><path fill="#000000" d="M208.096,499.194c-1.979-0.581-2.717-0.813-3.464-1.015c-5.448-1.469-11.175-3.098-9.13-10.57    c2.052-7.498,7.652-5.743,13.191-4.365c54.459,13.544,105.131,4.967,151.855-26.282c2.141-1.432,4.21-2.972,6.331-4.436    c4.321-2.985,9.171-2.804,11.21,1.712c1.218,2.698-0.061,8.886-2.306,10.392c-11.945,8.015-24.017,16.201-37.025,22.206    C296.367,506.409,252.182,509.705,208.096,499.194z"/><path fill="#000000" d="M257.19,76.643c1.541,1.709,5.608,4.186,6.248,7.355c1.294,6.406-4.149,8.04-9.256,8.695    c-21.796,2.796-41.759,10.463-60.053,22.51c-20.844,13.725-36.903,31.787-48.741,53.754c-1.566,2.905-4.431,5.763-7.384,7.016    c-1.69,0.717-6.028-1.24-6.922-3.084c-1.224-2.523-1.371-6.61-0.134-9.115c8.272-16.749,19.266-31.627,32.967-44.352    C189.548,95.616,219.698,81.329,257.19,76.643z"/><path fill="#000000" d="M357.565,346.799c-1.407,6.683-2.902,13.278-4.485,19.873c-4.309,17.762-9.673,35.174-14.597,52.673    c-1.495,5.364-3.694,10.464-10.376,8.442c-6.332-1.935-5.98-6.859-4.485-12.575c5.54-22.775,10.992-45.55,16.444-68.413H357.565z"/><path fill="#000000" d="M430.55,346.799c-0.879,4.397-1.759,8.882-2.55,13.278c-0.967,5.188-4.221,7.826-9.321,6.595    c-5.188-1.143-6.507-4.924-5.628-10.025c0.528-3.254,1.143-6.595,1.671-9.849H430.55z"/><path fill="#000000" d="M144.675,346.799c-2.286,4.836-4.836,9.409-8.09,13.63c-3.605,4.661-13.63,9.585-16.004,0.704    c-0.088-0.176-0.175-0.44-0.175-0.704c-0.088-2.286,1.67-5.364,2.813-7.386c1.231-2.111,2.462-4.133,3.694-6.244H144.675z"/><path fill="#000000" d="M243.751,55.19c-1.523,1.803-4.424,2.392-7.083,2.905c-18.784,3.626-36.632,9.812-53.241,19.369    c-4.665,2.684-9.161,3.006-12.009-1.954c-2.842-4.949-0.283-8.955,4.276-11.527c10.39-5.863,21.31-10.803,32.64-14.551    c6.532-2.161,12.788-5.191,19.597-6.454c4.093-0.759,9.95-0.857,13.782,1.657c2.657,1.744,3.889,6.166,2.823,9.186    C244.351,54.343,244.084,54.796,243.751,55.19z"/><path fill="#000000" d="M345.465,73.425c-2.398,0.475-5.235,0.091-7.491-0.836c-17.696-7.269-36.014-11.883-55.144-12.998    c-5.373-0.313-9.309-2.509-8.971-8.219c0.337-5.697,4.674-7.644,9.897-7.295c12.276,0.82,24.574,2.377,36.492,5.503    c8.152,2.138,28.016,6.444,30.001,16.319C351.182,70.537,348.73,72.778,345.465,73.425z"/><g><path fill="#000000" d="M68.524,139.625c0.352,0.616,0.176,2.638-1.231,5.628c-2.902,6.331-5.452,12.75-7.738,19.258h-16.62     c2.726-8.881,5.98-17.587,9.849-26.029c1.055-2.286,3.341-6.068,7.123-6.068c0.703,0,1.319,0.088,2.022,0.264     C64.039,133.293,66.413,135.844,68.524,139.625z"/><path fill="#000000" d="M148.544,107.617l-6.595,6.595c-5.012,5.012-10.2,10.201-14.685,15.916     c-8.617,10.904-15.74,22.336-21.28,34.383H88.045c10.113-25.062,26.029-47.573,47.485-67.27c2.814-2.638,5.54-4.133,7.123-3.957     c2.726,0.44,6.244,2.638,8.09,5.188C152.589,101.022,151.885,104.1,148.544,107.617z"/></g><path fill="#000000" d="M307.09,346.799c-14.421,47.572-44.934,85.297-91.364,113.172c-1.583,0.967-3.43,1.935-5.188,2.022    c-3.694,0.264-6.947-1.231-8.178-5.1c-1.319-4.397,0.528-7.563,4.485-9.849c17.059-9.409,32.272-21.193,45.287-35.614    c17.938-19.873,31.041-41.417,39.307-64.632H307.09z"/><path fill="#000000" d="M224.343,346.799c-0.44,0.616-0.967,1.319-1.407,2.022c-0.967,1.407-2.286,2.638-3.781,3.518    c-3.342,1.759-6.771,1.934-9.497-1.143c-1.143-1.407-1.759-2.902-1.847-4.397H224.343z"/><g><path fill="#000000" d="M467.395,164.511H450.6c-22.16-63.929-66.919-107.984-133.221-131.462     c-4.836-1.671-8.178-4.397-8.97-7.299c-0.528-2.022,0.088-4.045,1.671-5.979c1.847-2.198,3.869-3.166,6.508-3.166     c1.319,0,2.901,0.264,4.748,0.879c28.139,9.058,53.2,22.863,74.568,40.978C430.199,87.48,454.117,123.005,467.395,164.511z"/></g><g><path fill="#000000" d="M273.055,15.535c-0.402,6.017-5.507,7.301-9.715,7.332c-1.006,0.015-2.011,0.015-3.017,0.015     l-5.043-0.015c-68.885,2.197-124.466,30.335-165.197,83.643c-4.099,5.352-9.514,6.884-13.613,3.682     c-3.867-3.017-3.713-8.415,0.387-13.752c38.766-50.43,89.939-80.007,152.079-87.912c11.525-1.47,23.467-1.531,35.007-1.593h0.572     c3.032,0,5.306,0.773,6.76,2.336C272.622,10.709,273.241,12.875,273.055,15.535z"/></g><path fill="#000000" d="M258.753,361.28c-13.103,20.594-30.058,37.357-50.466,50.671c-4.816,3.142-9.178,2.697-11.703-1.042    c-2.566-3.8-1.195-8.35,3.668-11.543c20.306-13.338,36.493-30.601,49.129-51.284c3.094-5.064,6.816-6.354,10.928-3.933    c4.211,2.479,4.882,6.838,1.792,11.947C261.038,357.856,259.872,359.554,258.753,361.28z"/><path fill="#000000" d="M181.552,428.79c-11.982,10.529-26.706,17.006-43.887,19.842c-4.054,0.669-7.467-1.103-9.168-4.646    c-1.729-3.6-0.286-6.433,3.81-7.125c17.103-2.887,31.259-9.982,42.879-20.73c2.845-2.632,5.889-2.326,8.948,0.792    c3.133,3.193,3.319,6.567,0.474,9.233C183.627,427.075,182.572,427.915,181.552,428.79z"/><path fill="#000000" d="M299.408,451.224c-10.3,12.179-23.911,20.754-40.487,26.089c-3.911,1.259-7.548,0.008-9.752-3.245    c-2.24-3.307-1.23-6.321,2.719-7.608c16.491-5.374,29.448-14.477,39.359-26.818c2.427-3.022,5.482-3.168,8.967-0.534    c3.569,2.697,4.25,6.007,1.828,9.062C301.208,449.222,300.288,450.208,299.408,451.224z"/><path fill="#000000" d="M120.141,446.077c-1.583,1.847-3.693,2.726-5.891,2.726c-1.759,0-3.606-0.528-5.012-1.846    c-24.006-20.313-41.153-47.309-53.376-68.501c-5.716-9.937-11.256-20.576-15.037-31.656h16.62    c3.254,8.266,7.474,16.268,11.871,23.918c12.311,21.369,27.876,45.726,49.947,64.456    C122.516,437.987,122.867,442.823,120.141,446.077z"/><path fill="#000000" d="M180.989,488.08c-0.551,0-1.113-0.074-1.67-0.23c-15.666-4.382-35.465-11.147-49.617-24.672    c-2.471-2.361-2.559-6.277-0.199-8.748c2.362-2.471,6.278-2.561,8.749-0.198c12.17,11.629,30.121,17.705,44.401,21.699    c3.291,0.922,5.213,4.336,4.292,7.626C186.18,486.291,183.695,488.08,180.989,488.08z"/></g><circle fill="#000000" cx="93.636" cy="256" r="35.568"/><circle fill="#000000" cx="201.88" cy="256" r="35.568"/><circle fill="#000000" cx="310.125" cy="256" r="35.568"/><circle fill="#000000" cx="418.369" cy="256" r="35.568"/><path fill="#000000" d="M478.657,331.054H33.351c-11.584,0-21.005-9.42-21.005-20.996V201.943c0-11.576,9.42-20.996,21.005-20.996   h445.306c11.576,0,20.996,9.42,20.996,20.996v108.115C499.654,321.633,490.233,331.054,478.657,331.054z M33.351,194.137   c-4.311,0-7.814,3.504-7.814,7.806v108.115c0,4.302,3.504,7.806,7.814,7.806h445.306c4.302,0,7.806-3.504,7.806-7.806V201.943   c0-4.302-3.504-7.806-7.806-7.806H33.351z"/></g><text x="0" y="527" fill="#000000" font-size="5px" font-weight="bold" font-family="'Helvetica Neue', Helvetica, Arial-Unicode, Arial, Sans-serif">Created by Delwar Hossain</text><text x="0" y="532" fill="#000000" font-size="5px" font-weight="bold" font-family="'Helvetica Neue', Helvetica, Arial-Unicode, Arial, Sans-serif">from the Noun Project</text></svg>